<mxfile host="Electron" modified="2024-08-15T17:35:52.507Z" agent="Mozilla/5.0 (Windows NT 10.0; Win64; x64) AppleWebKit/537.36 (KHTML, like Gecko) draw.io/24.2.5 Chrome/120.0.6099.109 Electron/28.1.0 Safari/537.36" etag="uQ-dcVLBBSst6tLa8Ov_" version="24.2.5" type="device">
  <diagram name="Page-1" id="VnGW4DuLOiF3GTfA0ar8">
    <mxGraphModel dx="735" dy="2698" grid="1" gridSize="10" guides="1" tooltips="1" connect="1" arrows="1" fold="1" page="1" pageScale="1" pageWidth="850" pageHeight="1100" math="0" shadow="0">
      <root>
        <mxCell id="0" />
        <mxCell id="1" parent="0" />
        <mxCell id="Q3_IWsWRORYnz_TxvXbo-1" value="" style="rounded=0;whiteSpace=wrap;html=1;fillColor=#999999;fillStyle=cross-hatch;" parent="1" vertex="1">
          <mxGeometry x="359" y="-320" width="300" height="200" as="geometry" />
        </mxCell>
        <mxCell id="Q3_IWsWRORYnz_TxvXbo-2" value="200" style="text;html=1;align=center;verticalAlign=middle;resizable=0;points=[];autosize=1;strokeColor=none;fillColor=none;" parent="1" vertex="1">
          <mxGeometry x="360" y="-235" width="40" height="30" as="geometry" />
        </mxCell>
        <mxCell id="Q3_IWsWRORYnz_TxvXbo-3" value="300" style="text;html=1;align=center;verticalAlign=middle;resizable=0;points=[];autosize=1;strokeColor=none;fillColor=none;" parent="1" vertex="1">
          <mxGeometry x="490" y="-320" width="40" height="30" as="geometry" />
        </mxCell>
        <mxCell id="Q3_IWsWRORYnz_TxvXbo-4" value="" style="rounded=0;whiteSpace=wrap;html=1;fillColor=none;dashed=1;dashPattern=12 12;" parent="1" vertex="1">
          <mxGeometry x="300" y="-360" width="300" height="200" as="geometry" />
        </mxCell>
        <mxCell id="Q3_IWsWRORYnz_TxvXbo-5" value="40" style="endArrow=none;html=1;rounded=0;" parent="1" edge="1">
          <mxGeometry width="50" height="50" relative="1" as="geometry">
            <mxPoint x="290" y="-320" as="sourcePoint" />
            <mxPoint x="290" y="-360" as="targetPoint" />
          </mxGeometry>
        </mxCell>
        <mxCell id="Q3_IWsWRORYnz_TxvXbo-6" value="40" style="endArrow=none;html=1;rounded=0;" parent="1" edge="1">
          <mxGeometry width="50" height="50" relative="1" as="geometry">
            <mxPoint x="290" y="-120" as="sourcePoint" />
            <mxPoint x="290" y="-160" as="targetPoint" />
          </mxGeometry>
        </mxCell>
        <mxCell id="Q3_IWsWRORYnz_TxvXbo-7" value="60" style="endArrow=none;html=1;rounded=0;" parent="1" edge="1">
          <mxGeometry width="50" height="50" relative="1" as="geometry">
            <mxPoint x="300" y="-370" as="sourcePoint" />
            <mxPoint x="360" y="-370" as="targetPoint" />
          </mxGeometry>
        </mxCell>
        <mxCell id="Q3_IWsWRORYnz_TxvXbo-8" value="60" style="endArrow=none;html=1;rounded=0;" parent="1" edge="1">
          <mxGeometry width="50" height="50" relative="1" as="geometry">
            <mxPoint x="600" y="-370" as="sourcePoint" />
            <mxPoint x="660" y="-370" as="targetPoint" />
          </mxGeometry>
        </mxCell>
        <mxCell id="Q3_IWsWRORYnz_TxvXbo-9" value="" style="rounded=0;whiteSpace=wrap;html=1;fillColor=none;dashed=1;dashPattern=1 4;strokeColor=#000099;" parent="1" vertex="1">
          <mxGeometry x="300" y="-360" width="390" height="260" as="geometry" />
        </mxCell>
        <mxCell id="Q3_IWsWRORYnz_TxvXbo-10" value="30" style="endArrow=none;html=1;rounded=0;" parent="1" edge="1">
          <mxGeometry width="50" height="50" relative="1" as="geometry">
            <mxPoint x="660" y="-380" as="sourcePoint" />
            <mxPoint x="690" y="-380" as="targetPoint" />
          </mxGeometry>
        </mxCell>
        <mxCell id="Q3_IWsWRORYnz_TxvXbo-11" value="20" style="endArrow=none;html=1;rounded=0;" parent="1" edge="1">
          <mxGeometry width="50" height="50" relative="1" as="geometry">
            <mxPoint x="280" y="-100" as="sourcePoint" />
            <mxPoint x="280" y="-120" as="targetPoint" />
          </mxGeometry>
        </mxCell>
        <mxCell id="3sR4RnkPo_s59HO7wYGu-1" value="" style="rounded=0;whiteSpace=wrap;html=1;" parent="1" vertex="1">
          <mxGeometry x="90" y="-1030" width="710" height="350" as="geometry" />
        </mxCell>
        <mxCell id="3sR4RnkPo_s59HO7wYGu-3" value="" style="rounded=1;whiteSpace=wrap;html=1;" parent="1" vertex="1">
          <mxGeometry x="90" y="-805" width="50" height="250" as="geometry" />
        </mxCell>
        <mxCell id="3sR4RnkPo_s59HO7wYGu-11" value="" style="rounded=1;whiteSpace=wrap;html=1;" parent="1" vertex="1">
          <mxGeometry x="90" y="-1155" width="50" height="250" as="geometry" />
        </mxCell>
        <mxCell id="3sR4RnkPo_s59HO7wYGu-12" value="" style="rounded=1;whiteSpace=wrap;html=1;" parent="1" vertex="1">
          <mxGeometry x="170" y="-1100" width="50" height="250" as="geometry" />
        </mxCell>
        <mxCell id="3sR4RnkPo_s59HO7wYGu-13" value="" style="rounded=1;whiteSpace=wrap;html=1;" parent="1" vertex="1">
          <mxGeometry x="170" y="-750" width="50" height="250" as="geometry" />
        </mxCell>
        <mxCell id="3sR4RnkPo_s59HO7wYGu-14" value="" style="rounded=1;whiteSpace=wrap;html=1;" parent="1" vertex="1">
          <mxGeometry x="350" y="-1280" width="50" height="250" as="geometry" />
        </mxCell>
        <mxCell id="3sR4RnkPo_s59HO7wYGu-15" value="" style="rounded=1;whiteSpace=wrap;html=1;" parent="1" vertex="1">
          <mxGeometry x="350" y="-930" width="50" height="250" as="geometry" />
        </mxCell>
        <mxCell id="3sR4RnkPo_s59HO7wYGu-16" value="" style="rounded=1;whiteSpace=wrap;html=1;" parent="1" vertex="1">
          <mxGeometry x="430" y="-1320" width="50" height="250" as="geometry" />
        </mxCell>
        <mxCell id="3sR4RnkPo_s59HO7wYGu-17" value="" style="rounded=1;whiteSpace=wrap;html=1;" parent="1" vertex="1">
          <mxGeometry x="430" y="-970" width="50" height="250" as="geometry" />
        </mxCell>
        <mxCell id="3sR4RnkPo_s59HO7wYGu-18" value="" style="rounded=1;whiteSpace=wrap;html=1;" parent="1" vertex="1">
          <mxGeometry x="600" y="-1030" width="50" height="250" as="geometry" />
        </mxCell>
        <mxCell id="3sR4RnkPo_s59HO7wYGu-19" value="" style="rounded=1;whiteSpace=wrap;html=1;" parent="1" vertex="1">
          <mxGeometry x="600" y="-680" width="50" height="250" as="geometry" />
        </mxCell>
        <mxCell id="3sR4RnkPo_s59HO7wYGu-20" value="" style="rounded=1;whiteSpace=wrap;html=1;" parent="1" vertex="1">
          <mxGeometry x="700" y="-970" width="50" height="250" as="geometry" />
        </mxCell>
        <mxCell id="3sR4RnkPo_s59HO7wYGu-21" value="" style="rounded=1;whiteSpace=wrap;html=1;" parent="1" vertex="1">
          <mxGeometry x="700" y="-620" width="50" height="250" as="geometry" />
        </mxCell>
        <mxCell id="3sR4RnkPo_s59HO7wYGu-25" value="Enter" style="edgeStyle=orthogonalEdgeStyle;rounded=0;orthogonalLoop=1;jettySize=auto;html=1;" parent="1" source="3sR4RnkPo_s59HO7wYGu-23" target="3sR4RnkPo_s59HO7wYGu-24" edge="1">
          <mxGeometry relative="1" as="geometry" />
        </mxCell>
        <mxCell id="3sR4RnkPo_s59HO7wYGu-37" value="Esc" style="edgeStyle=orthogonalEdgeStyle;rounded=0;orthogonalLoop=1;jettySize=auto;html=1;" parent="1" source="3sR4RnkPo_s59HO7wYGu-23" edge="1">
          <mxGeometry relative="1" as="geometry">
            <mxPoint x="1170" y="-990" as="targetPoint" />
            <Array as="points">
              <mxPoint x="1170" y="-960" />
              <mxPoint x="1170" y="-960" />
            </Array>
          </mxGeometry>
        </mxCell>
        <mxCell id="3sR4RnkPo_s59HO7wYGu-23" value="Title" style="rounded=1;whiteSpace=wrap;html=1;fillColor=#60a917;fontColor=#ffffff;strokeColor=#2D7600;" parent="1" vertex="1">
          <mxGeometry x="1155" y="-920" width="120" height="60" as="geometry" />
        </mxCell>
        <mxCell id="3sR4RnkPo_s59HO7wYGu-27" value="time pass" style="edgeStyle=orthogonalEdgeStyle;rounded=0;orthogonalLoop=1;jettySize=auto;html=1;" parent="1" source="3sR4RnkPo_s59HO7wYGu-24" target="3sR4RnkPo_s59HO7wYGu-26" edge="1">
          <mxGeometry relative="1" as="geometry" />
        </mxCell>
        <mxCell id="3sR4RnkPo_s59HO7wYGu-24" value="Countdown" style="rounded=1;whiteSpace=wrap;html=1;" parent="1" vertex="1">
          <mxGeometry x="1155" y="-820" width="120" height="60" as="geometry" />
        </mxCell>
        <mxCell id="3sR4RnkPo_s59HO7wYGu-30" value="Collide" style="edgeStyle=orthogonalEdgeStyle;rounded=0;orthogonalLoop=1;jettySize=auto;html=1;" parent="1" source="3sR4RnkPo_s59HO7wYGu-26" target="3sR4RnkPo_s59HO7wYGu-29" edge="1">
          <mxGeometry relative="1" as="geometry" />
        </mxCell>
        <mxCell id="3sR4RnkPo_s59HO7wYGu-34" value="Esc" style="edgeStyle=orthogonalEdgeStyle;rounded=0;orthogonalLoop=1;jettySize=auto;html=1;entryX=0.5;entryY=0;entryDx=0;entryDy=0;" parent="1" source="3sR4RnkPo_s59HO7wYGu-26" target="3sR4RnkPo_s59HO7wYGu-28" edge="1">
          <mxGeometry relative="1" as="geometry" />
        </mxCell>
        <mxCell id="3sR4RnkPo_s59HO7wYGu-26" value="Play" style="rounded=1;whiteSpace=wrap;html=1;fillColor=#0050ef;fontColor=#ffffff;strokeColor=#001DBC;" parent="1" vertex="1">
          <mxGeometry x="1155" y="-720" width="120" height="60" as="geometry" />
        </mxCell>
        <mxCell id="3sR4RnkPo_s59HO7wYGu-35" value="Esc" style="edgeStyle=orthogonalEdgeStyle;rounded=0;orthogonalLoop=1;jettySize=auto;html=1;entryX=0;entryY=0.5;entryDx=0;entryDy=0;" parent="1" source="3sR4RnkPo_s59HO7wYGu-28" target="3sR4RnkPo_s59HO7wYGu-24" edge="1">
          <mxGeometry relative="1" as="geometry">
            <Array as="points">
              <mxPoint x="1100" y="-580" />
              <mxPoint x="1100" y="-790" />
            </Array>
          </mxGeometry>
        </mxCell>
        <mxCell id="3sR4RnkPo_s59HO7wYGu-36" value="Q" style="edgeStyle=orthogonalEdgeStyle;rounded=0;orthogonalLoop=1;jettySize=auto;html=1;entryX=0;entryY=0.5;entryDx=0;entryDy=0;" parent="1" source="3sR4RnkPo_s59HO7wYGu-28" target="3sR4RnkPo_s59HO7wYGu-23" edge="1">
          <mxGeometry relative="1" as="geometry">
            <Array as="points">
              <mxPoint x="1215" y="-530" />
              <mxPoint x="1060" y="-530" />
              <mxPoint x="1060" y="-890" />
            </Array>
          </mxGeometry>
        </mxCell>
        <mxCell id="3sR4RnkPo_s59HO7wYGu-28" value="Pause" style="rounded=1;whiteSpace=wrap;html=1;" parent="1" vertex="1">
          <mxGeometry x="1155" y="-610" width="120" height="60" as="geometry" />
        </mxCell>
        <mxCell id="3sR4RnkPo_s59HO7wYGu-31" value="Enter" style="edgeStyle=orthogonalEdgeStyle;rounded=0;orthogonalLoop=1;jettySize=auto;html=1;entryX=1;entryY=0.5;entryDx=0;entryDy=0;" parent="1" source="3sR4RnkPo_s59HO7wYGu-29" target="3sR4RnkPo_s59HO7wYGu-24" edge="1">
          <mxGeometry relative="1" as="geometry">
            <Array as="points">
              <mxPoint x="1360" y="-790" />
            </Array>
          </mxGeometry>
        </mxCell>
        <mxCell id="5i-eKl2Z111gNvhMtx9G-1" value="q" style="edgeStyle=orthogonalEdgeStyle;rounded=0;orthogonalLoop=1;jettySize=auto;html=1;exitX=0.75;exitY=0;exitDx=0;exitDy=0;entryX=1;entryY=0.5;entryDx=0;entryDy=0;" edge="1" parent="1" source="3sR4RnkPo_s59HO7wYGu-29" target="3sR4RnkPo_s59HO7wYGu-23">
          <mxGeometry relative="1" as="geometry" />
        </mxCell>
        <mxCell id="3sR4RnkPo_s59HO7wYGu-29" value="Score" style="rounded=1;whiteSpace=wrap;html=1;" parent="1" vertex="1">
          <mxGeometry x="1340" y="-720" width="120" height="60" as="geometry" />
        </mxCell>
        <mxCell id="3sR4RnkPo_s59HO7wYGu-32" value="" style="endArrow=classic;html=1;rounded=0;entryX=0.75;entryY=0;entryDx=0;entryDy=0;" parent="1" target="3sR4RnkPo_s59HO7wYGu-23" edge="1">
          <mxGeometry width="50" height="50" relative="1" as="geometry">
            <mxPoint x="1245" y="-990" as="sourcePoint" />
            <mxPoint x="1180" y="-910" as="targetPoint" />
          </mxGeometry>
        </mxCell>
      </root>
    </mxGraphModel>
  </diagram>
</mxfile>
